<svg width="42" height="42" viewBox="0 0 42 42" fill="none" xmlns="http://www.w3.org/2000/svg">
<g clip-path="url(#clip0_73_50)">
<path d="M6.21654 2.96497C2.95494 2.96497 0.303162 5.28527 0.303162 8.13917V34.0102C0.303162 36.8641 2.95494 39.1844 6.21654 39.1844H15.2899V27.3969H10.4113V21.0747H15.2899V18.3501C15.2899 11.3084 18.9303 8.04215 26.8394 8.04215C28.3363 8.04215 30.9234 8.30086 31.9859 8.55957V14.2835C31.4315 14.235 30.4614 14.2027 29.251 14.2027C25.3703 14.2027 23.8735 15.4882 23.8735 18.8271V21.0747H31.5979L30.2673 27.3969H23.8643V39.1844H35.7834C39.045 39.1844 41.6968 36.8641 41.6968 34.0102V8.13917C41.6968 5.28527 39.045 2.96497 35.7834 2.96497H6.21654Z" fill="white"/>
</g>
<defs>
<clipPath id="clip0_73_50">
<rect width="41.3936" height="41.3936" fill="white" transform="translate(0.303162 0.377808)"/>
</clipPath>
</defs>
</svg>
