<svg width="42" height="42" viewBox="0 0 42 42" fill="none" xmlns="http://www.w3.org/2000/svg">
<g clip-path="url(#clip0_73_52)">
<path d="M18.265 17.4932C17.7269 17.808 17.2649 18.2124 16.9054 18.6834C16.5459 19.1545 16.296 19.6828 16.1699 20.2384C15.9151 21.3603 16.1802 22.5249 16.9068 23.4758C17.6334 24.4268 18.7619 25.0862 20.0442 25.3091C21.3264 25.532 22.6574 25.3 23.7442 24.6643C24.831 24.0285 25.5846 23.0411 25.8393 21.9191C26.094 20.7971 25.829 19.6326 25.1024 18.6816C24.3758 17.7307 23.2473 17.0712 21.965 16.8483C20.6828 16.6255 19.3518 16.8574 18.265 17.4932ZM31.4131 11.9632C30.9326 11.5428 30.3505 11.2114 29.713 10.9931C28.0406 10.4191 24.3909 10.4433 22.0348 10.4676C21.656 10.4676 21.3049 10.4756 21 10.4756C20.6951 10.4756 20.3347 10.4756 19.9467 10.4676C17.5905 10.4433 13.9594 10.411 12.287 10.9931C11.6495 11.2114 11.0766 11.5428 10.5869 11.9632C10.0972 12.3836 9.7276 12.893 9.47813 13.4508C8.82212 14.9141 8.85908 18.1157 8.87756 20.1773C8.87756 20.5088 8.8868 20.816 8.8868 21.0747C8.8868 21.3334 8.8868 21.6406 8.87756 21.9721C8.85908 24.0337 8.82212 27.2352 9.47813 28.6985C9.7276 29.2564 10.1064 29.7576 10.5869 30.1861C11.0674 30.6146 11.6495 30.938 12.287 31.1563C13.9594 31.7303 17.609 31.7061 19.9651 31.6818C20.344 31.6818 20.6951 31.6737 21 31.6737C21.3049 31.6737 21.6652 31.6737 22.0533 31.6818C24.4094 31.7061 28.0406 31.7384 29.713 31.1563C30.3505 30.938 30.9234 30.6065 31.4131 30.1861C31.9028 29.7657 32.2724 29.2564 32.5218 28.6985C33.1871 27.2433 33.1501 24.0579 33.1224 21.9883C33.1224 21.6487 33.1132 21.3334 33.1132 21.0666C33.1132 20.7998 33.1132 20.4926 33.1224 20.1449C33.1501 18.0833 33.1871 14.898 32.5218 13.4346C32.2724 12.8768 31.8935 12.3756 31.4131 11.9471V11.9632ZM25.2133 15.5609C26.8845 16.5387 28.0434 18.0573 28.435 19.7827C28.8266 21.5081 28.4188 23.299 27.3014 24.7613C26.7481 25.4854 26.0373 26.107 25.2094 26.5907C24.3815 27.0744 23.4529 27.4107 22.4765 27.5803C20.5046 27.923 18.4579 27.5662 16.7867 26.5884C15.1154 25.6118 13.9561 24.0942 13.5636 22.3695C13.1711 20.6449 13.5777 18.8544 14.6939 17.3921C15.8101 15.9298 17.5445 14.9153 19.5155 14.5719C21.4866 14.2285 23.5328 14.5842 25.204 15.5609H25.2133ZM27.9112 15.4558C27.6248 15.286 27.3938 15.0435 27.2552 14.7605C27.1166 14.4776 27.0889 14.1704 27.1536 13.8631C27.2183 13.5559 27.3938 13.2891 27.634 13.0708C27.8743 12.8525 28.1977 12.707 28.5395 12.6504C28.8814 12.5938 29.2417 12.6181 29.5651 12.7394C29.8885 12.8606 30.1657 13.0547 30.3597 13.3053C30.5538 13.5559 30.6554 13.855 30.6554 14.1623C30.6554 14.3644 30.6092 14.5665 30.5261 14.7524C30.4429 14.9384 30.3043 15.1082 30.1472 15.2537C29.9902 15.3992 29.7869 15.5124 29.5744 15.5933C29.3619 15.6741 29.1309 15.7145 28.8999 15.7145C28.5488 15.7145 28.2069 15.6256 27.9205 15.4558H27.9112ZM41.6968 8.13917C41.6968 5.28527 39.045 2.96497 35.7834 2.96497H6.21654C2.95494 2.96497 0.303162 5.28527 0.303162 8.13917V34.0102C0.303162 36.8641 2.95494 39.1844 6.21654 39.1844H35.7834C39.045 39.1844 41.6968 36.8641 41.6968 34.0102V8.13917ZM33.2887 31.8273C31.5609 33.3392 29.4635 33.8162 27.0981 33.9213C24.6589 34.0425 17.3411 34.0425 14.9018 33.9213C12.5365 33.8162 10.4391 33.3392 8.71124 31.8273C6.98343 30.3155 6.43829 28.4803 6.32741 26.4106C6.18882 24.2762 6.18882 17.8731 6.32741 15.7388C6.44753 13.6691 6.98343 11.8339 8.71124 10.322C10.4391 8.8102 12.5457 8.3332 14.9018 8.23619C17.3411 8.11492 24.6589 8.11492 27.0981 8.23619C29.4635 8.34129 31.5609 8.8102 33.2887 10.322C35.0165 11.8339 35.5617 13.6691 35.6725 15.7388C35.8111 17.8651 35.8111 24.26 35.6725 26.4025C35.5524 28.4722 35.0165 30.3074 33.2887 31.8192V31.8273Z" fill="white"/>
</g>
<defs>
<clipPath id="clip0_73_52">
<rect width="41.3936" height="41.3936" fill="white" transform="translate(0.303162 0.377808)"/>
</clipPath>
</defs>
</svg>
