<svg width="40" height="44" viewBox="0 0 40 44" fill="none" xmlns="http://www.w3.org/2000/svg">
<path d="M5.71429 3.16235C2.5625 3.16235 0 5.5635 0 8.51683V35.2892C0 38.2425 2.5625 40.6437 5.71429 40.6437H34.2857C37.4375 40.6437 40 38.2425 40 35.2892V8.51683C40 5.5635 37.4375 3.16235 34.2857 3.16235H5.71429ZM19.4643 23.2165L5.73214 14.9087C5.89286 13.5701 7.09821 12.5327 8.57143 12.5327H31.4286C32.9018 12.5327 34.1071 13.5701 34.2679 14.9087L20.5357 23.2165C20.375 23.3169 20.1875 23.3671 20 23.3671C19.8125 23.3671 19.625 23.3169 19.4643 23.2165ZM22.0893 25.4671L34.2857 18.088V28.5961C34.2857 30.077 33.0089 31.2734 31.4286 31.2734H8.57143C6.99107 31.2734 5.71429 30.077 5.71429 28.5961V18.088L17.9107 25.4671C18.5357 25.8436 19.2589 26.0444 20 26.0444C20.7411 26.0444 21.4643 25.8436 22.0893 25.4671Z" fill="white"/>
</svg>
