<svg width="42" height="42" viewBox="0 0 42 42" fill="none" xmlns="http://www.w3.org/2000/svg">
<g clip-path="url(#clip0_73_48)">
<path d="M6.2166 2.96497C2.955 2.96497 0.303223 5.28527 0.303223 8.13917V34.0102C0.303223 36.8641 2.955 39.1844 6.2166 39.1844H35.7835C39.0451 39.1844 41.6969 36.8641 41.6969 34.0102V8.13917C41.6969 5.28527 39.0451 2.96497 35.7835 2.96497H6.2166ZM33.6676 9.75611L24.0768 19.3446L35.3585 32.3933H26.5253L19.6141 24.4783L11.6957 32.3933H7.30688L17.5629 22.1338L6.74326 9.75611H15.7981L22.0534 16.9919L29.2788 9.75611H33.6676ZM30.175 30.0972L14.4768 11.9309H11.862L27.7357 30.0972H30.1658H30.175Z" fill="white"/>
</g>
<defs>
<clipPath id="clip0_73_48">
<rect width="41.3936" height="41.3936" fill="white" transform="translate(0.303223 0.377808)"/>
</clipPath>
</defs>
</svg>
