<svg width="42" height="42" viewBox="0 0 42 42" fill="none" xmlns="http://www.w3.org/2000/svg">
<g clip-path="url(#clip0_73_41)">
<path d="M8.8129 20.8906C8.8129 22.9037 9.45968 24.8682 10.6793 26.5579L10.9657 26.9622L9.73687 30.8913L14.3475 29.8322L14.791 30.0667C16.6574 31.0369 18.801 31.5543 20.9908 31.5543H21C27.708 31.5543 33.3165 26.7762 33.3165 20.8987C33.3165 18.0528 31.912 15.3768 29.6114 13.3637C27.3014 11.3425 24.2524 10.2349 21 10.2349C14.2828 10.2349 8.82214 15.013 8.8129 20.8906ZM25.6937 26.9864C24.5295 27.14 23.6241 27.0592 21.3049 26.1861C17.9047 24.9006 15.5948 22.0224 15.1236 21.4403C15.0866 21.3918 15.0589 21.3676 15.0497 21.3514C14.8649 21.1412 13.5528 19.6132 13.5528 18.0367C13.5528 16.5491 14.3844 15.781 14.7725 15.4253C14.8002 15.4011 14.8187 15.3849 14.8372 15.3606C15.1698 15.0373 15.5671 14.9564 15.8166 14.9564C16.0568 14.9564 16.3063 14.9564 16.5188 14.9645C16.5465 14.9645 16.565 14.9645 16.5927 14.9645C16.8052 14.9645 17.0731 14.9645 17.3411 15.5143C17.452 15.7487 17.6183 16.1044 17.7938 16.4682C18.0988 17.115 18.4129 17.7861 18.4683 17.8912C18.5607 18.0528 18.6254 18.2388 18.4961 18.449C18.1819 18.9988 17.8585 19.2898 17.6368 19.5C17.3503 19.7587 17.221 19.88 17.4243 20.1953C18.8379 22.3216 20.2516 23.0573 22.4044 24.0032C22.774 24.1649 22.9865 24.1406 23.199 23.9223C23.4115 23.7121 24.1138 22.9845 24.354 22.6692C24.5942 22.3458 24.8437 22.4024 25.1763 22.5075C25.5089 22.6126 27.3107 23.3887 27.6803 23.5504C27.7542 23.5828 27.8189 23.607 27.8743 23.6313C28.133 23.7445 28.3086 23.8172 28.3825 23.9223C28.4656 24.0759 28.4656 24.7227 28.1607 25.4665C27.8558 26.2184 26.396 26.8975 25.6937 26.9864ZM41.6968 8.06825C41.6968 5.21435 39.045 2.89404 35.7834 2.89404H6.21656C2.95496 2.89404 0.303184 5.21435 0.303184 8.06825V33.9393C0.303184 36.7932 2.95496 39.1135 6.21656 39.1135H35.7834C39.045 39.1135 41.6968 36.7932 41.6968 33.9393V8.06825ZM13.9871 32.1526L6.21656 33.9393L8.29548 27.2937C7.01117 25.3533 6.33668 23.1462 6.33668 20.8825C6.34591 13.8165 12.9153 8.06825 20.9908 8.06825C24.9084 8.06825 28.5858 9.40222 31.3576 11.8276C34.1203 14.253 35.7834 17.4707 35.7834 20.8987C35.7834 27.9647 29.0662 33.7129 20.9908 33.7129C18.533 33.7129 16.1215 33.1712 13.9871 32.1526Z" fill="white"/>
</g>
<defs>
<clipPath id="clip0_73_41">
<rect width="41.3936" height="41.3936" fill="white" transform="translate(0.303184 0.306885)"/>
</clipPath>
</defs>
</svg>
