<svg width="42" height="42" viewBox="0 0 42 42" fill="none" xmlns="http://www.w3.org/2000/svg">
<g clip-path="url(#clip0_73_54)">
<path d="M26.359 20.9538L17.5629 16.5799V25.3276L26.359 20.9538ZM35.7835 2.82788H6.2166C2.955 2.82788 0.303223 5.14819 0.303223 8.00209V33.8731C0.303223 36.727 2.955 39.0473 6.2166 39.0473H35.7835C39.0451 39.0473 41.6969 36.727 41.6969 33.8731V8.00209C41.6969 5.14819 39.0451 2.82788 35.7835 2.82788ZM37.114 13.8312C37.8162 16.1434 37.8162 20.9618 37.8162 20.9618C37.8162 20.9618 37.8162 25.7803 37.114 28.0845C36.7259 29.3618 35.5894 30.3239 34.1388 30.6635C31.524 31.286 21 31.286 21 31.286C21 31.286 10.4761 31.286 7.86126 30.6716C6.41063 30.332 5.27415 29.3699 4.88609 28.0926C4.18388 25.7803 4.18388 20.9618 4.18388 20.9618C4.18388 20.9618 4.18388 16.1353 4.88609 13.8312C5.27415 12.5538 6.41063 11.5513 7.86126 11.2117C10.4761 10.5892 21 10.5892 21 10.5892C21 10.5892 31.524 10.5892 34.1388 11.2117C35.5894 11.5513 36.7259 12.5538 37.114 13.8312Z" fill="white"/>
</g>
<defs>
<clipPath id="clip0_73_54">
<rect width="41.3936" height="41.3936" fill="white" transform="translate(0.303223 0.240723)"/>
</clipPath>
</defs>
</svg>
